PathFileType	4	(X/Y/Z)	S01_0004_Gait_markers.trc
DataRate	CameraRate	NumFrames	NumMarkers	Units	OrigDataRate	OrigDataStartFrame	OrigNumFrames
250.000000	250.000000	4	54	mm	250.000000	120	320
Frame#	Time	HEAD_ANT			R_HEAD			L_HEAD			C7			R_BACK			L_BACK			STERNUM			R_ACROMION			R_HUM_PROX			R_HUM_ANT			R_HUM_POST			R_ELBOW_LAT			R_ELBOW_MED			R_FOREARM			R_WIRST_LAT			R_WRITS_MED			R_HAND			L_ACROMION			L_HUM_PROX			L_HUM_ANT			L_HUM_POST			L_ELBOW_LAT			L_ELBOW_MED			L_FOREARM			L_WRIST_LAT			L_WIRST_MED			L_HAND			R_ILIAC			SACRUM			L_ILIAC			R_GTROCH			R_THIGH__1			R_THIGH_2			R_THIGH_3			R_THIGH_4			R_SHANK_1			R_SHANK_2			R_SHANK_3			R_SHANK_4			R_HEEL			R_FOOT_LAT			R_FOOT_MED			L_GTROCH			L_THIGH_1			L_THIGH_2			L_THIGH_3			L_THIGH_4			L_SHANK_1			L_SHANK_2			L_SHANK_3			L_SHANK_4			L_HEEL			L_FOOT_LAT			L_FOOT_MED			
		X1	Y1	Z1	X2	Y2	Z2	X3	Y3	Z3	X4	Y4	Z4	X5	Y5	Z5	X6	Y6	Z6	X7	Y7	Z7	X8	Y8	Z8	X9	Y9	Z9	X10	Y10	Z10	X11	Y11	Z11	X12	Y12	Z12	X13	Y13	Z13	X14	Y14	Z14	X15	Y15	Z15	X16	Y16	Z16	X17	Y17	Z17	X18	Y18	Z18	X19	Y19	Z19	X20	Y20	Z20	X21	Y21	Z21	X22	Y22	Z22	X23	Y23	Z23	X24	Y24	Z24	X25	Y25	Z25	X26	Y26	Z26	X27	Y27	Z27	X28	Y28	Z28	X29	Y29	Z29	X30	Y30	Z30	X31	Y31	Z31	X32	Y32	Z32	X33	Y33	Z33	X34	Y34	Z34	X35	Y35	Z35	X36	Y36	Z36	X37	Y37	Z37	X38	Y38	Z38	X39	Y39	Z39	X40	Y40	Z40	X41	Y41	Z41	X42	Y42	Z42	X43	Y43	Z43	X44	Y44	Z44	X45	Y45	Z45	X46	Y46	Z46	X47	Y47	Z47	X48	Y48	Z48	X49	Y49	Z49	X50	Y50	Z50	X51	Y51	Z51	X52	Y52	Z52	X53	Y53	Z53	X54	Y54	Z54	

121	0.48	812.9531860351562	322.8403930664062	1731.87548828125	756.35888671875	243.7799835205078	1681.887084960938	755.318115234375	391.5809936523438	1680.255737304688	619.6578979492188	313.4462280273438	1511.388061523438	544.1665649414062	246.9190216064453	1315.995361328125	540.4879760742188	384.8912048339844	1320.394897460938	791.7517700195312	326.0465087890625	1344.427490234375	704.079833984375	148.4620971679688	1453.061889648438	695.4043579101562	58.82694625854492	1291.218994140625	768.1172485351562	72.40352630615234	1215.059692382812	652.9341430664062	35.52734375	1199.940307617188	716.74560546875	44.9272346496582	1101.140991210938	669.4679565429688	115.782844543457	1093.954223632812	857.4808959960938	97.96449279785156	953.43603515625	897.2760620117188	156.2837982177734	903.5751953125	854.6009521484375	101.5063323974609	859.8458862304688	942.83740234375	116.0885925292969	819.9459228515625	690.37548828125	487.2352600097656	1470.269409179688	644.5615234375	583.927734375	1307.021728515625	698.9789428710938	591.8389892578125	1221.092041015625	575.5869140625	602.2660522460938	1235.174682617188	622.1137084960938	617.879638671875	1127.183959960938	581.1309814453125	555.571044921875	1125.951416015625	707.5676879882812	622.5357055664062	940.1849975585938	738.7755126953125	577.4933471679688	873.1138305664062	682.835205078125	634.3365478515625	860.9513549804688	749.50634765625	630.7892456054688	792.1577758789062	691.08251953125	158.2673187255859	1060.038696289062	563.084228515625	329.6394348144531	1033.195434570312	678.1642456054688	502.1351623535156	1061.831420898438	634.5836181640625	148.6883850097656	924.7498779296875	599.0375366210938	176.0637664794922	656.1521606445312	657.8404541015625	172.761962890625	657.6630859375	635.5969848632812	210.5083618164062	558.8239135742188	575.1034545898438	199.0189971923828	580.1868286132812	497.5270080566406	205.5345916748047	355.2208862304688	546.5205688476562	223.6129150390625	324.4026489257812	523.1205444335938	246.1296997070312	244.2523803710938	462.7711791992188	233.1950531005859	263.2014465332031	375.3706970214844	325.783935546875	71.37950134277344	530.7888793945312	240.1300659179688	19.88961029052734	590.81494140625	339.8485107421875	29.1015567779541	659.5325317382812	513.9520874023438	944.94970703125	846.7554931640625	514.1480102539062	696.2175903320312	789.3435668945312	528.6029052734375	693.0089721679688	815.5145874023438	498.7789306640625	593.6226196289062	874.0849609375	492.2158813476562	620.0891723632812	902.1135864257812	494.1202697753906	348.5281066894531	849.589111328125	490.5001220703125	317.3823547363281	863.7807006835938	476.0311889648438	232.3624877929688	925.5465698242188	475.3529357910156	249.9247131347656	870.7794799804688	403.5319519042969	38.68924713134766	1042.598876953125	484.3287353515625	46.17223739624023	1079.141235351562	396.0463562011719	75.14109039306641	
122	0.484	818.5789184570312	323.8022155761719	1730.990478515625	761.9642333984375	244.606201171875	1681.056640625	761.0579833984375	392.1936340332031	1679.04638671875	625.2606811523438	313.9199829101562	1510.4150390625	549.6837768554688	247.4048614501953	1315.271362304688	545.6314697265625	385.2801818847656	1319.539916992188	797.8159790039062	327.7838134765625	1343.103759765625	709.7073364257812	148.8905639648438	1452.125366210938	701.2977294921875	59.31039047241211	1290.221435546875	774.1141357421875	73.2899169921875	1214.21630859375	658.9898071289062	35.91451644897461	1198.89013671875	722.982666015625	45.58815383911133	1100.120971679688	677.106689453125	116.3463287353516	1092.639404296875	863.71142578125	98.86709594726562	952.7378540039062	903.6676635742188	157.1056365966797	903.055419921875	861.105224609375	102.4013900756836	859.1560668945312	949.4451293945312	116.9959487915039	819.4139404296875	695.7169799804688	487.8214721679688	1469.191650390625	649.9270629882812	584.285888671875	1305.735107421875	704.3016967773438	593.1968383789062	1219.903198242188	581.0724487304688	602.3872680664062	1233.835693359375	627.6669921875	617.904296875	1125.90673828125	586.38427734375	555.6121215820312	1124.677124023438	712.706787109375	622.617919921875	938.7953491210938	743.7667236328125	577.6890258789062	871.852783203125	687.8733520507812	634.5831909179688	859.670166015625	754.4148559570312	630.8743896484375	790.7093505859375	695.8238525390625	158.8218994140625	1059.137817382812	568.4359741210938	330.0790710449219	1032.199462890625	683.6138305664062	502.5848388671875	1060.77685546875	639.6267700195312	148.7972717285156	924.3499145507812	603.0187377929688	175.7345886230469	655.840087890625	661.7704467773438	173.8464508056641	657.5321044921875	639.3997802734375	210.4956512451172	558.4697265625	578.8028564453125	199.1643829345703	579.8446655273438	499.9142150878906	205.5873260498047	355.522705078125	548.7395629882812	223.8225250244141	324.3162536621094	524.7147216796875	246.3730926513672	244.2498931884766	464.5149230957031	233.2208251953125	263.6022338867188	375.6652526855469	325.6748046875	72.48332214355469	530.7745971679688	240.1587219238281	19.98134613037109	590.8779907226562	339.7608032226562	29.05193901062012	664.9413452148438	514.224365234375	943.8191528320312	851.5675659179688	514.1807250976562	694.3466186523438	793.8989868164062	528.5875244140625	691.3548583984375	819.6033325195312	498.3533325195312	592.152099609375	878.673828125	492.049560546875	618.6182250976562	910.2186279296875	493.5277404785156	348.2937927246094	858.35986328125	490.3674011230469	316.276611328125	874.6288452148438	474.5946044921875	231.1620941162109	935.9757080078125	474.9255981445312	250.043212890625	885.8756103515625	403.0425415039062	38.03722763061523	1057.36767578125	484.0705871582031	48.99639129638672	1093.626098632812	396.02294921875	78.38893127441406	
123	0.488	824.215087890625	324.6592712402344	1729.8603515625	767.6371459960938	245.3695678710938	1680.12890625	766.4464111328125	393.1619262695312	1677.820434570312	630.7699584960938	314.421630859375	1509.430297851562	554.9209594726562	247.7194213867188	1314.533081054688	550.9564819335938	385.6432495117188	1318.676391601562	802.5626831054688	327.2752990722656	1341.975952148438	715.483154296875	149.4281311035156	1451.104370117188	707.1732788085938	60.07460784912109	1289.19677734375	780.077880859375	74.03921508789062	1213.203125	664.9228515625	36.47625350952148	1197.844360351562	729.0509643554688	46.1490592956543	1099.232421875	683.0885009765625	116.8236389160156	1091.551635742188	869.9644165039062	99.59884643554688	951.974853515625	909.8602905273438	158.0120697021484	902.488037109375	867.532470703125	103.1849212646484	858.4409790039062	955.8988037109375	117.9990234375	818.9683837890625	701.34765625	488.287841796875	1467.841186523438	655.391845703125	584.55810546875	1304.320556640625	709.58984375	593.6456909179688	1218.872192382812	586.5991821289062	602.6295166015625	1232.70263671875	633.0105590820312	618.18408203125	1124.592407226562	589.8822021484375	556.0512084960938	1123.886596679688	718.0946655273438	622.9044799804688	937.4793090820312	749.0718383789062	577.8855590820312	870.2970581054688	692.9928588867188	634.676513671875	858.4398803710938	759.5179443359375	630.8594360351562	789.3596801757812	701.4571533203125	159.2563018798828	1058.327026367188	573.9283447265625	330.9194946289062	1030.982299804688	689.5534057617188	503.0281066894531	1059.7265625	644.5855712890625	149.0657653808594	923.824462890625	607.11181640625	175.7871551513672	655.7435302734375	665.7721557617188	174.0922241210938	657.1467895507812	643.1331787109375	210.6605987548828	558.1007690429688	582.7257690429688	199.2773590087891	579.6881103515625	502.4022521972656	205.5034790039062	355.95556640625	550.8474731445312	224.1237030029297	324.177490234375	526.4371948242188	246.2200012207031	244.5180053710938	466.3256530761719	233.1148376464844	264.1322631835938	375.9701232910156	325.4503784179688	73.45855712890625	530.7706298828125	240.1829223632812	19.99236679077148	590.7882080078125	339.8344421386719	28.89113998413086	671.982666015625	514.2799682617188	942.633544921875	856.42919921875	514.2031860351562	692.5640869140625	798.7073974609375	528.9912719726562	689.7425537109375	824.3609008789062	498.0151672363281	590.5306396484375	883.196533203125	491.7293090820312	616.5742797851562	918.3662109375	492.9072265625	347.8631896972656	867.2132568359375	489.4311828613281	314.9893798828125	885.20751953125	473.8410339355469	230.3189697265625	946.0198364257812	474.9073486328125	250.5176239013672	900.315673828125	401.9326477050781	37.91224670410156	1071.707275390625	484.0899658203125	51.34848403930664	1107.622436523438	395.9291076660156	81.64997100830078	
124	0.492	829.7459716796875	325.6435546875	1728.785522460938	773.3419799804688	246.2337799072266	1679.091430664062	772.1383056640625	393.8866577148438	1676.6455078125	636.4085693359375	315.0159912109375	1508.413208007812	560.3947143554688	248.2238159179688	1313.657348632812	556.365966796875	385.968505859375	1317.766235351562	808.8463134765625	328.5904541015625	1340.794921875	721.1895751953125	150.0380249023438	1450.040161132812	713.1452026367188	60.53458023071289	1288.251586914062	786.0243530273438	74.82183074951172	1212.340087890625	670.8666381835938	37.06537246704102	1196.668579101562	735.142578125	47.00116348266602	1098.252563476562	689.188720703125	117.6144104003906	1090.506225585938	876.1582641601562	100.3906936645508	951.202392578125	916.0511474609375	158.7973327636719	901.8499755859375	873.8073120117188	104.1304702758789	857.664306640625	962.3111572265625	119.000602722168	818.3545532226562	706.802001953125	488.8313903808594	1466.662719726562	660.7412109375	584.9435424804688	1303.1640625	715.2714233398438	592.8299560546875	1217.447021484375	591.9762573242188	603.0442504882812	1231.3447265625	638.2786254882812	618.4490966796875	1123.2470703125	597.3416137695312	555.95263671875	1122.092407226562	723.2869262695312	623.021728515625	936.204345703125	754.2738647460938	578.0056762695312	868.8445434570312	698.1992797851562	634.7420654296875	856.9525146484375	764.47998046875	630.7908935546875	787.9226684570312	706.7084350585938	159.7403259277344	1057.615966796875	579.4373168945312	331.4320678710938	1029.959716796875	694.7863159179688	503.6432189941406	1058.645263671875	649.6937255859375	149.2785949707031	923.412353515625	611.344970703125	175.8768310546875	655.2778930664062	670.0772705078125	173.9863586425781	656.61474609375	646.9710083007812	210.5841369628906	557.651611328125	586.6487426757812	199.4053039550781	579.4844970703125	504.8765869140625	205.6462097167969	356.1934204101562	553.2169799804688	224.1669311523438	324.2372436523438	528.0554809570312	246.3193359375	244.7077484130859	468.1275329589844	233.0607147216797	264.6683349609375	376.3346862792969	325.2786254882812	74.76230621337891	530.760986328125	240.2088317871094	20.0061149597168	590.8670043945312	339.8743896484375	28.99883270263672	677.4862670898438	514.7252197265625	941.3905029296875	860.9994506835938	514.614501953125	690.8740844726562	803.5858764648438	528.7782592773438	688.244384765625	828.61865234375	497.4485168457031	588.9627075195312	887.8172607421875	491.6131591796875	615.2466430664062	926.4676513671875	492.5502624511719	347.603271484375	875.7506713867188	488.6102905273438	313.8417663574219	895.4485473632812	473.0903930664062	229.4319305419922	956.0148315429688	474.2698669433594	250.543212890625	914.541015625	401.5716247558594	37.24935150146484	1085.53271484375	483.9527587890625	53.80583572387695	1121.10498046875	395.8477172851562	84.82025909423828	
